<svg width="80" height="110" viewBox="0 0 80 110" fill="none" xmlns="http://www.w3.org/2000/svg">
<g opacity="0.8" clip-path="url(#clip0_4_45)">
<g style="mix-blend-mode:multiply" filter="url(#filter0_f_4_45)">
<path d="M77.0371 17.2161V73.4463C77.045 78.3692 76.0218 83.2392 74.0333 87.743C72.1073 92.1151 69.3366 96.064 65.8801 99.3633C62.4046 102.704 58.3212 105.349 53.8506 107.155C44.4336 110.96 33.9062 110.96 24.4892 107.155C20.0188 105.349 15.9355 102.704 12.4597 99.3633C9.00433 96.0642 6.23376 92.1164 4.30655 87.7458C2.31923 83.2416 1.29607 78.3719 1.30275 73.4492V18.0924C1.30275 10.4166 7.71944 4.17606 15.6065 4.17606C23.4937 4.17606 29.9103 10.4166 29.9103 18.0924V25.2737C30.3752 25.2308 30.8472 25.205 31.3193 25.205C34.1046 25.2059 36.8315 26.0036 39.1778 27.5039C41.5192 26.0058 44.2404 25.2081 47.0205 25.205C47.4926 25.205 47.9646 25.2308 48.4295 25.2737V17.2161C48.4295 9.54017 54.8462 3.29824 62.7333 3.29824C70.6204 3.29824 77.0371 9.54017 77.0371 17.2161Z" fill="black" fill-opacity="0.4"/>
</g>
<path d="M75.7372 13.9164V70.148C75.7444 75.0708 74.7212 79.9407 72.7334 84.4447C70.8068 88.8164 68.0362 92.7653 64.5802 96.065C61.1047 99.4058 57.0214 102.051 52.5507 103.857C43.1334 107.659 32.6067 107.659 23.1894 103.857C18.7187 102.051 14.6354 99.4058 11.1599 96.065C7.70448 92.7659 4.93391 88.8181 3.0067 84.4475C1.0189 79.9435 -0.00428081 75.0737 0.00290625 70.1509V14.7942C0.00290625 7.11831 6.41816 0.877817 14.3067 0.877817C22.1952 0.877817 28.6105 7.11831 28.6105 14.7942V21.9754C29.0754 21.9325 29.5474 21.9054 30.0194 21.9054C32.8048 21.9072 35.5316 22.7054 37.8779 24.2057C40.2219 22.7049 42.947 21.9067 45.7307 21.9054C46.2027 21.9054 46.6747 21.9325 47.1396 21.9754V13.9164C47.1396 6.24049 53.5549 0 61.4434 0C69.3319 0 75.7372 6.24049 75.7372 13.9164Z" fill="white"/>
<path d="M61.4362 4.61782C56.0981 4.61782 51.7554 8.78959 51.7554 13.9107V28.5576C49.6673 26.9654 47.033 26.265 44.4293 26.6099C41.8256 26.9547 39.4647 28.3167 37.8636 30.3976C36.263 28.3213 33.9055 26.9625 31.3059 26.6177C28.7063 26.273 26.0758 26.9704 23.9889 28.5576V14.7942C23.9889 9.6674 19.6463 5.50135 14.3081 5.50135C8.96991 5.50135 4.62872 9.67312 4.62872 14.7942V70.148C4.62185 74.4309 5.51203 78.6678 7.24201 82.5862C8.92685 86.4046 11.3479 89.8538 14.3667 92.7368C17.42 95.6705 21.0065 97.9935 24.9329 99.5806C33.2378 102.929 42.518 102.929 50.8228 99.5806C54.7491 97.9932 58.3355 95.6702 61.389 92.7368C64.4079 89.8538 66.8289 86.4046 68.5138 82.5862C70.2437 78.6678 71.1339 74.4309 71.1271 70.148V13.9164C71.1156 8.78959 66.773 4.61782 61.4362 4.61782ZM40.0978 35.8246C40.0978 32.8409 42.6167 30.4205 45.7249 30.4205C48.8332 30.4205 51.3506 32.8409 51.3506 35.8246V55.1108C51.3506 58.0959 48.8303 60.5149 45.7249 60.5149C44.9869 60.5163 44.2553 60.377 43.5694 60.1046C43.6884 59.5188 43.7483 58.9225 43.7482 58.3247C43.7482 55.3853 42.3178 52.7604 40.0978 51.0563V35.8246ZM30.0122 30.4205C33.119 30.4205 35.6379 32.8409 35.6379 35.8246V49.1405C35.1174 49.0592 34.5913 49.0186 34.0645 49.019H24.3837V35.8246C24.3865 32.8409 26.9054 30.4205 30.0122 30.4205V30.4205ZM8.67526 14.7942C8.67526 11.8105 11.1942 9.39148 14.3009 9.39148C17.4077 9.39148 19.9266 11.8105 19.9266 14.7942V49.0204H14.3009C12.2932 49.0152 10.3313 49.62 8.67526 50.7546V14.7942ZM67.0619 63.9662V71.266C67.0619 71.3547 67.0619 71.4433 67.0548 71.5305C67.0441 71.7328 67.0216 71.9342 66.9875 72.1339C65.9262 86.6936 53.2945 98.1881 37.8679 98.1881C31.4787 98.2095 25.2515 96.1804 20.1026 92.3994C19.0921 91.6523 18.1313 90.8405 17.2261 89.9689C14.8604 87.7037 12.9091 85.0426 11.4602 82.1058C9.62483 78.3842 8.67187 74.29 8.67526 70.1409V58.4634C8.67526 58.4391 8.67526 58.4148 8.67526 58.3905C8.67526 58.3662 8.67526 58.3419 8.67526 58.3175C8.67526 55.3324 11.1942 52.9134 14.3009 52.9134H34.0674C34.5992 52.9123 35.1286 52.9845 35.6408 53.1279C35.7838 53.1665 35.914 53.2094 36.047 53.2565C36.1386 53.2894 36.2287 53.3266 36.3173 53.3638L36.3803 53.3895C36.4675 53.4281 36.5548 53.4681 36.6392 53.5096L36.6692 53.5239C36.7465 53.5639 36.8223 53.6039 36.8981 53.6468L36.9553 53.6783C37.0368 53.7255 37.1169 53.7726 37.1956 53.8212L37.2356 53.8484C37.3057 53.8942 37.3787 53.9399 37.4402 53.9914L37.4874 54.0257C37.5632 54.08 37.6304 54.1372 37.7077 54.1958L37.752 54.233C37.8164 54.2859 37.8779 54.3402 37.938 54.3945L37.9737 54.4274C38.0424 54.4903 38.1082 54.5547 38.1726 54.6204L38.2169 54.6662C38.2755 54.7291 38.3328 54.792 38.39 54.8563L38.4086 54.8778C38.4701 54.9478 38.5273 55.0207 38.5845 55.0936C38.5988 55.1108 38.6117 55.128 38.6245 55.1465C38.6818 55.2209 38.7361 55.2895 38.789 55.3739C38.8405 55.4496 38.8892 55.5283 38.9321 55.6069C38.9435 55.6255 38.9564 55.6455 38.9664 55.6641C39.0136 55.7441 39.0594 55.8242 39.1009 55.9071C39.1067 55.9173 39.1119 55.9278 39.1166 55.9386C39.1552 56.0129 39.191 56.0815 39.2253 56.1645C39.2353 56.1845 39.2439 56.2045 39.2525 56.2259C39.2897 56.3089 39.324 56.3932 39.3569 56.479C39.3569 56.4962 39.3683 56.5147 39.3755 56.5319C39.4027 56.6062 39.427 56.6749 39.4513 56.7578C39.4513 56.7807 39.467 56.805 39.4742 56.8307C39.4813 56.8564 39.4871 56.875 39.4928 56.8979L39.5271 57.0223L39.5443 57.0952C39.5543 57.1366 39.5643 57.1767 39.5729 57.2181C39.5815 57.2596 39.5829 57.2682 39.5886 57.2939C39.5944 57.3196 39.6044 57.3754 39.6115 57.4154L39.6244 57.4941L39.6416 57.6184C39.6416 57.6442 39.6415 57.6699 39.6516 57.6971C39.6616 57.7242 39.6616 57.7814 39.6659 57.8243C39.6701 57.8672 39.6659 57.8744 39.6659 57.9001L39.6744 58.0431C39.6744 58.0645 39.6744 58.0874 39.6744 58.1088C39.6744 58.1774 39.6744 58.2518 39.6744 58.3161C39.6746 59.4441 39.3098 60.5419 38.6346 61.4457C38.1013 62.1568 37.4087 62.733 36.6123 63.128C35.8159 63.523 34.9378 63.7259 34.0488 63.7203H22.6916C21.2898 63.7203 20.2699 64.9998 20.6375 66.2937C20.7693 66.7342 21.041 67.1198 21.4116 67.3923C21.7822 67.6647 22.2316 67.809 22.6916 67.8034H31.1408C34.8026 67.8034 37.7706 70.6541 37.7706 74.1711V76.7617C37.7903 77.2858 38.0125 77.7819 38.3904 78.1457C38.7684 78.5096 39.2727 78.7128 39.7975 78.7128C40.3222 78.7128 40.8265 78.5096 41.2045 78.1457C41.5824 77.7819 41.8046 77.2858 41.8243 76.7617V74.1783C41.819 72.7495 41.5094 71.3383 40.916 70.0384C40.3226 68.7386 39.4591 67.58 38.3828 66.6396C39.8048 65.96 41.0385 64.9424 41.9759 63.6759C43.1688 64.1583 44.4438 64.4054 45.7307 64.4036C51.0674 64.4036 55.4101 60.2333 55.4101 55.1108V53.7483L55.8163 21.2263V13.9164C55.8163 10.9327 58.3337 8.51366 61.442 8.51366C64.5502 8.51366 67.0676 10.9327 67.0676 13.9164V63.9647L67.0619 63.9662Z" fill="#5378FC"/>
</g>
<defs>
<filter id="filter0_f_4_45" x="-6.84543" y="-4.84991" width="92.0307" height="123.007" filterUnits="userSpaceOnUse" color-interpolation-filters="sRGB">
<feFlood flood-opacity="0" result="BackgroundImageFix"/>
<feBlend mode="normal" in="SourceGraphic" in2="BackgroundImageFix" result="shape"/>
<feGaussianBlur stdDeviation="4.07407" result="effect1_foregroundBlur_4_45"/>
</filter>
<clipPath id="clip0_4_45">
<rect width="79.037" height="110" fill="white"/>
</clipPath>
</defs>
</svg>
