<svg width="285" height="175" viewBox="0 0 285 175" fill="none" xmlns="http://www.w3.org/2000/svg">
<path d="M0 8C0 3.58172 3.58172 0 8 0H277C281.418 0 285 3.58172 285 8V175H0V8Z" fill="url(#paint0_linear_13_354)"/>
<path d="M31.6311 41H29.6213V28.6543H36.5964V30.3601H31.6311V34.2107H36.2755V35.908H31.6311V41ZM41.8107 31.4747C42.9929 31.4747 43.8852 31.7365 44.4876 32.2601C45.0956 32.7836 45.3996 33.5999 45.3996 34.7089V41H43.9893L43.6093 39.6742H43.5418C43.2772 40.012 43.0042 40.2907 42.7227 40.5102C42.4412 40.7298 42.1147 40.893 41.7431 41C41.3772 41.1126 40.9297 41.1689 40.4005 41.1689C39.8431 41.1689 39.3449 41.0676 38.9058 40.8649C38.4667 40.6566 38.1205 40.3413 37.8672 39.9191C37.6138 39.4969 37.4872 38.9621 37.4872 38.3147C37.4872 37.352 37.8446 36.6286 38.5596 36.1445C39.2802 35.6603 40.3667 35.3929 41.8191 35.3423L43.4405 35.2831V34.7934C43.4405 34.146 43.2885 33.6843 42.9845 33.4085C42.6861 33.1326 42.2639 32.9947 41.7178 32.9947C41.2505 32.9947 40.7974 33.0623 40.3582 33.1974C39.9191 33.3325 39.4913 33.4986 39.0747 33.6956L38.4329 32.2938C38.8889 32.0518 39.4068 31.8547 39.9867 31.7027C40.5722 31.5507 41.1802 31.4747 41.8107 31.4747ZM43.432 36.5329L42.2245 36.5751C41.2337 36.6089 40.5384 36.7778 40.1387 37.0818C39.739 37.3858 39.5391 37.8024 39.5391 38.3316C39.5391 38.7932 39.6771 39.131 39.9529 39.3449C40.2288 39.5532 40.5919 39.6573 41.0422 39.6573C41.7291 39.6573 42.2976 39.4631 42.748 39.0747C43.204 38.6806 43.432 38.1036 43.432 37.3436V36.5329ZM49.6681 27.8605V34.2107C49.6681 34.4978 49.6568 34.8131 49.6343 35.1565C49.6118 35.4943 49.5893 35.8123 49.5667 36.1107H49.609C49.7553 35.9137 49.9298 35.6828 50.1325 35.4183C50.3408 35.1537 50.5378 34.9229 50.7236 34.7258L53.5778 31.6521H55.8578L52.1169 35.6716L56.1027 41H53.772L50.7827 36.896L49.6681 37.8502V41H47.6836V27.8605H49.6681ZM60.8272 31.4747C61.6604 31.4747 62.3754 31.6464 62.9721 31.9898C63.5688 32.3332 64.0276 32.8202 64.3485 33.4507C64.6694 34.0812 64.8299 34.8356 64.8299 35.7138V36.7778H58.5895C58.612 37.6842 58.854 38.3822 59.3157 38.872C59.7829 39.3618 60.436 39.6067 61.2748 39.6067C61.8715 39.6067 62.4063 39.5504 62.8792 39.4378C63.3577 39.3196 63.8503 39.1479 64.357 38.9227V40.5356C63.8897 40.7551 63.414 40.9156 62.9299 41.0169C62.4457 41.1182 61.8659 41.1689 61.1903 41.1689C60.2727 41.1689 59.4649 40.9916 58.7668 40.6369C58.0743 40.2766 57.5311 39.7418 57.137 39.0325C56.7486 38.3231 56.5544 37.4421 56.5544 36.3894C56.5544 35.3423 56.7317 34.4528 57.0863 33.7209C57.441 32.9891 57.9392 32.4318 58.581 32.0489C59.2228 31.6661 59.9715 31.4747 60.8272 31.4747ZM60.8272 32.9694C60.2023 32.9694 59.6957 33.172 59.3072 33.5774C58.9244 33.9827 58.6992 34.5766 58.6317 35.3591H62.8876C62.882 34.8919 62.8032 34.4781 62.6512 34.1178C62.5048 33.7575 62.2797 33.476 61.9757 33.2734C61.6773 33.0707 61.2945 32.9694 60.8272 32.9694ZM75.7567 34.2952H80.3673V40.4933C79.7199 40.7073 79.05 40.8733 78.3575 40.9916C77.6651 41.1098 76.8882 41.1689 76.0269 41.1689C74.7715 41.1689 73.7075 40.9212 72.8349 40.4258C71.9679 39.9247 71.3093 39.2013 70.8589 38.2556C70.4085 37.3042 70.1834 36.1585 70.1834 34.8187C70.1834 33.5295 70.4339 32.4121 70.9349 31.4663C71.4359 30.5149 72.165 29.7802 73.122 29.2623C74.079 28.7387 75.2387 28.477 76.6011 28.477C77.271 28.477 77.9184 28.5445 78.5433 28.6796C79.1738 28.8091 79.7509 28.9893 80.2744 29.2201L79.5651 30.8921C79.1485 30.695 78.6812 30.529 78.1633 30.3938C77.6454 30.2587 77.1078 30.1912 76.5504 30.1912C75.6666 30.1912 74.9038 30.3826 74.262 30.7654C73.6259 31.1482 73.1361 31.6886 72.7927 32.3867C72.4493 33.0792 72.2776 33.8983 72.2776 34.844C72.2776 35.7617 72.4155 36.5667 72.6913 37.2591C72.9672 37.9516 73.3979 38.492 73.9833 38.8805C74.5744 39.2633 75.3373 39.4547 76.2718 39.4547C76.739 39.4547 77.1359 39.4293 77.4624 39.3787C77.7889 39.328 78.0901 39.2717 78.366 39.2098V36.0263H75.7567V34.2952ZM90.7749 31.6521V41H89.2127L88.9425 39.7418H88.8327C88.6356 40.0627 88.3851 40.3301 88.0811 40.544C87.7771 40.7523 87.4394 40.9071 87.0678 41.0084C86.6963 41.1154 86.305 41.1689 85.894 41.1689C85.1903 41.1689 84.588 41.0507 84.0869 40.8142C83.5915 40.5722 83.2115 40.2006 82.9469 39.6996C82.6824 39.1985 82.5501 38.5511 82.5501 37.7574V31.6521H84.5429V37.3858C84.5429 38.112 84.6893 38.6553 84.982 39.0156C85.2804 39.3759 85.742 39.556 86.3669 39.556C86.9693 39.556 87.4478 39.4322 87.8025 39.1845C88.1571 38.9368 88.4076 38.5708 88.554 38.0867C88.706 37.6025 88.782 37.0086 88.782 36.3049V31.6521H90.7749ZM95.111 31.6521V41H93.1265V31.6521H95.111ZM94.1314 28.0716C94.4354 28.0716 94.6972 28.1533 94.9167 28.3165C95.1419 28.4798 95.2545 28.7613 95.2545 29.161C95.2545 29.555 95.1419 29.8365 94.9167 30.0054C94.6972 30.1687 94.4354 30.2503 94.1314 30.2503C93.8162 30.2503 93.5488 30.1687 93.3292 30.0054C93.1153 29.8365 93.0083 29.555 93.0083 29.161C93.0083 28.7613 93.1153 28.4798 93.3292 28.3165C93.5488 28.1533 93.8162 28.0716 94.1314 28.0716ZM100.604 41.1689C99.4893 41.1689 98.5942 40.7636 97.9186 39.9529C97.2487 39.1366 96.9137 37.9347 96.9137 36.3471C96.9137 34.7427 97.2543 33.5295 97.9355 32.7076C98.6223 31.8857 99.5259 31.4747 100.646 31.4747C101.119 31.4747 101.533 31.5395 101.887 31.6689C102.242 31.7928 102.546 31.9617 102.799 32.1756C103.058 32.3895 103.278 32.6288 103.458 32.8934H103.551C103.523 32.7189 103.489 32.4683 103.45 32.1418C103.416 31.8097 103.399 31.5029 103.399 31.2214V27.8605H105.392V41H103.838L103.483 39.7249H103.399C103.23 39.9951 103.016 40.24 102.757 40.4596C102.504 40.6735 102.2 40.8452 101.845 40.9747C101.496 41.1041 101.082 41.1689 100.604 41.1689ZM101.161 39.556C102.011 39.556 102.611 39.3111 102.96 38.8213C103.309 38.3316 103.489 37.5969 103.5 36.6174V36.3556C103.5 35.3085 103.331 34.5063 102.994 33.9489C102.656 33.386 102.039 33.1045 101.144 33.1045C100.429 33.1045 99.8833 33.3944 99.5062 33.9743C99.1346 34.5485 98.9488 35.3507 98.9488 36.3809C98.9488 37.4111 99.1346 38.1993 99.5062 38.7453C99.8833 39.2858 100.435 39.556 101.161 39.556ZM111.468 31.4747C112.301 31.4747 113.016 31.6464 113.612 31.9898C114.209 32.3332 114.668 32.8202 114.989 33.4507C115.31 34.0812 115.47 34.8356 115.47 35.7138V36.7778H109.23C109.252 37.6842 109.494 38.3822 109.956 38.872C110.423 39.3618 111.076 39.6067 111.915 39.6067C112.512 39.6067 113.047 39.5504 113.52 39.4378C113.998 39.3196 114.491 39.1479 114.997 38.9227V40.5356C114.53 40.7551 114.054 40.9156 113.57 41.0169C113.086 41.1182 112.506 41.1689 111.831 41.1689C110.913 41.1689 110.105 40.9916 109.407 40.6369C108.715 40.2766 108.171 39.7418 107.777 39.0325C107.389 38.3231 107.195 37.4421 107.195 36.3894C107.195 35.3423 107.372 34.4528 107.727 33.7209C108.081 32.9891 108.58 32.4318 109.221 32.0489C109.863 31.6661 110.612 31.4747 111.468 31.4747ZM111.468 32.9694C110.843 32.9694 110.336 33.172 109.948 33.5774C109.565 33.9827 109.34 34.5766 109.272 35.3591H113.528C113.522 34.8919 113.444 34.4781 113.292 34.1178C113.145 33.7575 112.92 33.476 112.616 33.2734C112.318 33.0707 111.935 32.9694 111.468 32.9694ZM116.927 39.9529C116.927 39.4913 117.045 39.1676 117.281 38.9818C117.523 38.7904 117.816 38.6947 118.16 38.6947C118.503 38.6947 118.796 38.7904 119.038 38.9818C119.285 39.1676 119.409 39.4913 119.409 39.9529C119.409 40.4033 119.285 40.7298 119.038 40.9324C118.796 41.1295 118.503 41.228 118.16 41.228C117.816 41.228 117.523 41.1295 117.281 40.9324C117.045 40.7298 116.927 40.4033 116.927 39.9529ZM116.927 32.7245C116.927 32.2572 117.045 31.9279 117.281 31.7365C117.523 31.5451 117.816 31.4494 118.16 31.4494C118.503 31.4494 118.796 31.5451 119.038 31.7365C119.285 31.9279 119.409 32.2572 119.409 32.7245C119.409 33.1692 119.285 33.4929 119.038 33.6956C118.796 33.8926 118.503 33.9912 118.16 33.9912C117.816 33.9912 117.523 33.8926 117.281 33.6956C117.045 33.4929 116.927 33.1692 116.927 32.7245ZM29.6973 50.6543H33.1849C34.8231 50.6543 36.0081 50.8992 36.7399 51.389C37.4718 51.8787 37.8377 52.6528 37.8377 53.7112C37.8377 54.443 37.6322 55.0482 37.2213 55.5267C36.8159 55.9996 36.222 56.3064 35.4395 56.4472V56.5316C37.3142 56.8525 38.2515 57.8377 38.2515 59.4871C38.2515 60.5905 37.8771 61.4519 37.1284 62.0711C36.3853 62.6904 35.3438 63 34.004 63H29.6973V50.6543ZM31.1329 55.9405H33.4973C34.5106 55.9405 35.2397 55.7829 35.6844 55.4676C36.1291 55.1467 36.3515 54.6091 36.3515 53.8547C36.3515 53.1623 36.1038 52.6641 35.6084 52.3601C35.113 52.0504 34.3249 51.8956 33.244 51.8956H31.1329V55.9405ZM31.1329 57.1565V61.7756H33.7084C34.7048 61.7756 35.4536 61.5842 35.9546 61.2013C36.4613 60.8129 36.7146 60.2077 36.7146 59.3858C36.7146 58.6202 36.4557 58.0572 35.9377 57.6969C35.4254 57.3366 34.6429 57.1565 33.5902 57.1565H31.1329ZM44.116 63.1689C42.748 63.1689 41.6671 62.7523 40.8734 61.9191C40.0852 61.0859 39.6911 59.9291 39.6911 58.4485C39.6911 56.9566 40.0571 55.7716 40.7889 54.8934C41.5264 54.0152 42.5144 53.5761 43.7529 53.5761C44.9126 53.5761 45.8302 53.9589 46.5058 54.7245C47.1813 55.4845 47.5191 56.4894 47.5191 57.7391V58.6258H41.1436C41.1717 59.7123 41.4448 60.5371 41.9627 61.1C42.4862 61.663 43.2209 61.9445 44.1667 61.9445C45.1631 61.9445 46.1483 61.7362 47.1222 61.3196V62.5693C46.6268 62.7833 46.1567 62.9353 45.712 63.0253C45.2729 63.121 44.7409 63.1689 44.116 63.1689ZM43.736 54.7498C42.9929 54.7498 42.399 54.9919 41.9542 55.476C41.5151 55.9602 41.2562 56.6301 41.1774 57.4858H46.016C46.016 56.602 45.819 55.9264 45.4249 55.4592C45.0308 54.9863 44.4679 54.7498 43.736 54.7498ZM53.1218 63.1689C51.782 63.1689 50.7433 62.7579 50.0058 61.936C49.274 61.1085 48.9081 59.9403 48.9081 58.4316C48.9081 56.8834 49.2796 55.6872 50.0227 54.8427C50.7715 53.9983 51.8355 53.5761 53.2147 53.5761C53.6595 53.5761 54.1042 53.6239 54.5489 53.7196C54.9937 53.8153 55.3427 53.9279 55.596 54.0574L55.1654 55.248C54.8557 55.1242 54.518 55.0229 54.152 54.944C53.7861 54.8596 53.4624 54.8174 53.1809 54.8174C51.3007 54.8174 50.3605 56.0165 50.3605 58.4147C50.3605 59.5519 50.5885 60.4245 51.0445 61.0325C51.5061 61.6405 52.1873 61.9445 53.0881 61.9445C53.8593 61.9445 54.6503 61.7784 55.4609 61.4462V62.6876C54.8417 63.0084 54.062 63.1689 53.1218 63.1689ZM65.1592 58.364C65.1592 59.8728 64.7792 61.0522 64.0192 61.9022C63.2592 62.7467 62.2093 63.1689 60.8694 63.1689C60.0419 63.1689 59.3072 62.9747 58.6655 62.5862C58.0237 62.1978 57.5283 61.6405 57.1792 60.9142C56.8302 60.188 56.6557 59.3379 56.6557 58.364C56.6557 56.8553 57.0329 55.6815 57.7872 54.8427C58.5416 53.9983 59.5887 53.5761 60.9285 53.5761C62.2234 53.5761 63.2508 54.0067 64.0108 54.868C64.7764 55.7294 65.1592 56.8947 65.1592 58.364ZM58.1081 58.364C58.1081 59.5462 58.3446 60.447 58.8175 61.0662C59.2903 61.6855 59.9856 61.9951 60.9032 61.9951C61.8208 61.9951 62.5161 61.6883 62.989 61.0747C63.4675 60.4554 63.7068 59.5519 63.7068 58.364C63.7068 57.1874 63.4675 56.2952 62.989 55.6872C62.5161 55.0735 61.8152 54.7667 60.8863 54.7667C59.9687 54.7667 59.2763 55.0679 58.809 55.6703C58.3418 56.2726 58.1081 57.1706 58.1081 58.364ZM78.9277 63V56.9791C78.9277 56.2417 78.77 55.69 78.4548 55.324C78.1395 54.9525 77.6497 54.7667 76.9854 54.7667C76.1129 54.7667 75.4683 55.0172 75.0517 55.5183C74.6351 56.0193 74.4268 56.7906 74.4268 57.832V63H73.025V56.9791C73.025 56.2417 72.8674 55.69 72.5521 55.324C72.2369 54.9525 71.7443 54.7667 71.0744 54.7667C70.1962 54.7667 69.5516 55.0313 69.1406 55.5605C68.7353 56.084 68.5326 56.9454 68.5326 58.1445V63H67.1308V53.7449H68.2708L68.4988 55.0116H68.5664C68.831 54.5612 69.2025 54.2094 69.681 53.9561C70.1652 53.7027 70.7056 53.5761 71.3024 53.5761C72.7492 53.5761 73.6949 54.0996 74.1397 55.1467H74.2072C74.4831 54.6626 74.8828 54.2798 75.4063 53.9983C75.9299 53.7168 76.5266 53.5761 77.1966 53.5761C78.2437 53.5761 79.0262 53.8463 79.5441 54.3867C80.0676 54.9215 80.3294 55.78 80.3294 56.9623V63H78.9277ZM84.1335 63H82.7317V53.7449H84.1335V63ZM82.6135 51.237C82.6135 50.9161 82.6923 50.6824 82.85 50.5361C83.0076 50.3841 83.2046 50.3081 83.4411 50.3081C83.6662 50.3081 83.8605 50.3841 84.0237 50.5361C84.187 50.6881 84.2686 50.9217 84.2686 51.237C84.2686 51.5522 84.187 51.7887 84.0237 51.9463C83.8605 52.0983 83.6662 52.1743 83.4411 52.1743C83.2046 52.1743 83.0076 52.0983 82.85 51.9463C82.6923 51.7887 82.6135 51.5522 82.6135 51.237ZM92.9451 63V57.0129C92.9451 56.2586 92.7734 55.6956 92.43 55.324C92.0866 54.9525 91.549 54.7667 90.8171 54.7667C89.8488 54.7667 89.1395 55.0285 88.6891 55.552C88.2388 56.0756 88.0136 56.9397 88.0136 58.1445V63H86.6118V53.7449H87.7518L87.9798 55.0116H88.0474C88.3345 54.5556 88.737 54.2038 89.2549 53.9561C89.7728 53.7027 90.3499 53.5761 90.986 53.5761C92.1007 53.5761 92.9395 53.8463 93.5024 54.3867C94.0654 54.9215 94.3469 55.78 94.3469 56.9623V63H92.9451ZM104.315 53.7449V54.6316L102.601 54.8343C102.759 55.0313 102.9 55.2903 103.023 55.6112C103.147 55.9264 103.209 56.2839 103.209 56.6836C103.209 57.59 102.9 58.3134 102.28 58.8538C101.661 59.3942 100.811 59.6645 99.7301 59.6645C99.4542 59.6645 99.1952 59.6419 98.9532 59.5969C98.3564 59.9122 98.0581 60.3091 98.0581 60.7876C98.0581 61.0409 98.1622 61.2295 98.3705 61.3533C98.5788 61.4716 98.9363 61.5307 99.4429 61.5307H101.081C102.083 61.5307 102.852 61.7418 103.386 62.164C103.927 62.5862 104.197 63.1999 104.197 64.0049C104.197 65.0295 103.786 65.8092 102.964 66.344C102.142 66.8844 100.943 67.1546 99.3669 67.1546C98.1566 67.1546 97.2221 66.9295 96.5634 66.4791C95.9104 66.0287 95.5839 65.3926 95.5839 64.5707C95.5839 64.0077 95.764 63.5207 96.1243 63.1098C96.4846 62.6988 96.9913 62.4202 97.6443 62.2738C97.4078 62.1668 97.208 62.0007 97.0447 61.7756C96.8871 61.5504 96.8083 61.2886 96.8083 60.9902C96.8083 60.6525 96.8984 60.3569 97.0785 60.1036C97.2587 59.8502 97.543 59.6054 97.9314 59.3689C97.4529 59.1719 97.0616 58.8369 96.7576 58.364C96.4593 57.8911 96.3101 57.3507 96.3101 56.7427C96.3101 55.7294 96.6141 54.9497 97.2221 54.4036C97.8301 53.8519 98.6914 53.5761 99.8061 53.5761C100.29 53.5761 100.726 53.6324 101.115 53.7449H104.315ZM96.935 64.5538C96.935 65.0548 97.1461 65.4348 97.5683 65.6938C97.9905 65.9527 98.5957 66.0822 99.3838 66.0822C100.56 66.0822 101.43 65.9049 101.993 65.5502C102.562 65.2012 102.846 64.7255 102.846 64.1231C102.846 63.6221 102.691 63.273 102.382 63.076C102.072 62.8846 101.489 62.7889 100.634 62.7889H98.9532C98.317 62.7889 97.8216 62.9409 97.467 63.2449C97.1123 63.5489 96.935 63.9852 96.935 64.5538ZM97.695 56.7089C97.695 57.3563 97.8779 57.8461 98.2438 58.1783C98.6098 58.5104 99.1192 58.6765 99.7723 58.6765C101.14 58.6765 101.824 58.0122 101.824 56.6836C101.824 55.2931 101.132 54.5978 99.7469 54.5978C99.0883 54.5978 98.5816 54.7752 98.227 55.1298C97.8723 55.4845 97.695 56.0109 97.695 56.7089ZM115.411 63L115.132 61.6827H115.065C114.603 62.2625 114.142 62.6566 113.68 62.8649C113.224 63.0676 112.653 63.1689 111.966 63.1689C111.048 63.1689 110.328 62.9324 109.804 62.4596C109.286 61.9867 109.027 61.3139 109.027 60.4413C109.027 58.5723 110.522 57.5928 113.511 57.5027L115.082 57.452V56.8778C115.082 56.1516 114.924 55.6168 114.609 55.2734C114.299 54.9243 113.801 54.7498 113.114 54.7498C112.343 54.7498 111.47 54.9863 110.496 55.4592L110.066 54.3867C110.522 54.139 111.02 53.9448 111.56 53.8041C112.106 53.6633 112.653 53.5929 113.199 53.5929C114.302 53.5929 115.118 53.8378 115.647 54.3276C116.182 54.8174 116.45 55.6027 116.45 56.6836V63H115.411ZM112.244 62.012C113.117 62.012 113.801 61.7727 114.296 61.2942C114.797 60.8157 115.048 60.1458 115.048 59.2845V58.4485L113.646 58.5076C112.532 58.547 111.726 58.7215 111.231 59.0311C110.741 59.3351 110.496 59.8108 110.496 60.4582C110.496 60.9649 110.648 61.3505 110.952 61.6151C111.262 61.8797 111.693 62.012 112.244 62.012ZM29.6973 72.6543H33.1849C34.8231 72.6543 36.0081 72.8992 36.7399 73.389C37.4718 73.8787 37.8377 74.6528 37.8377 75.7112C37.8377 76.443 37.6322 77.0482 37.2213 77.5267C36.8159 77.9996 36.222 78.3064 35.4395 78.4472V78.5316C37.3142 78.8525 38.2515 79.8377 38.2515 81.4871C38.2515 82.5905 37.8771 83.4519 37.1284 84.0711C36.3853 84.6904 35.3438 85 34.004 85H29.6973V72.6543ZM31.1329 77.9405H33.4973C34.5106 77.9405 35.2397 77.7829 35.6844 77.4676C36.1291 77.1467 36.3515 76.6091 36.3515 75.8547C36.3515 75.1623 36.1038 74.6641 35.6084 74.3601C35.113 74.0504 34.3249 73.8956 33.244 73.8956H31.1329V77.9405ZM31.1329 79.1565V83.7756H33.7084C34.7048 83.7756 35.4536 83.5842 35.9546 83.2013C36.4613 82.8129 36.7146 82.2077 36.7146 81.3858C36.7146 80.6202 36.4557 80.0572 35.9377 79.6969C35.4254 79.3366 34.6429 79.1565 33.5902 79.1565H31.1329ZM44.116 85.1689C42.748 85.1689 41.6671 84.7523 40.8734 83.9191C40.0852 83.0859 39.6911 81.9291 39.6911 80.4485C39.6911 78.9566 40.0571 77.7716 40.7889 76.8934C41.5264 76.0152 42.5144 75.5761 43.7529 75.5761C44.9126 75.5761 45.8302 75.9589 46.5058 76.7245C47.1813 77.4845 47.5191 78.4894 47.5191 79.7391V80.6258H41.1436C41.1717 81.7123 41.4448 82.5371 41.9627 83.1C42.4862 83.663 43.2209 83.9445 44.1667 83.9445C45.1631 83.9445 46.1483 83.7362 47.1222 83.3196V84.5693C46.6268 84.7833 46.1567 84.9353 45.712 85.0253C45.2729 85.121 44.7409 85.1689 44.116 85.1689ZM43.736 76.7498C42.9929 76.7498 42.399 76.9919 41.9542 77.476C41.5151 77.9602 41.2562 78.6301 41.1774 79.4858H46.016C46.016 78.602 45.819 77.9264 45.4249 77.4592C45.0308 76.9863 44.4679 76.7498 43.736 76.7498ZM52.4125 84.012C52.6602 84.012 52.8995 83.9951 53.1303 83.9613C53.3611 83.9219 53.544 83.8825 53.6792 83.8431V84.9156C53.5272 84.9887 53.302 85.0479 53.0036 85.0929C52.7109 85.1436 52.4463 85.1689 52.2098 85.1689C50.4196 85.1689 49.5245 84.2259 49.5245 82.34V76.8343H48.1987V76.1587L49.5245 75.5761L50.1156 73.6001H50.9263V75.7449H53.6116V76.8343H50.9263V82.2809C50.9263 82.8382 51.0586 83.2661 51.3232 83.5645C51.5878 83.8628 51.9509 84.012 52.4125 84.012ZM58.0321 84.012C58.2798 84.012 58.5191 83.9951 58.7499 83.9613C58.9807 83.9219 59.1637 83.8825 59.2988 83.8431V84.9156C59.1468 84.9887 58.9216 85.0479 58.6232 85.0929C58.3305 85.1436 58.0659 85.1689 57.8295 85.1689C56.0392 85.1689 55.1441 84.2259 55.1441 82.34V76.8343H53.8184V76.1587L55.1441 75.5761L55.7352 73.6001H56.5459V75.7449H59.2312V76.8343H56.5459V82.2809C56.5459 82.8382 56.6782 83.2661 56.9428 83.5645C57.2074 83.8628 57.5705 84.012 58.0321 84.012ZM64.5722 85.1689C63.2042 85.1689 62.1233 84.7523 61.3295 83.9191C60.5414 83.0859 60.1473 81.9291 60.1473 80.4485C60.1473 78.9566 60.5132 77.7716 61.2451 76.8934C61.9826 76.0152 62.9706 75.5761 64.2091 75.5761C65.3688 75.5761 66.2864 75.9589 66.9619 76.7245C67.6375 77.4845 67.9753 78.4894 67.9753 79.7391V80.6258H61.5998C61.6279 81.7123 61.9009 82.5371 62.4189 83.1C62.9424 83.663 63.6771 83.9445 64.6228 83.9445C65.6193 83.9445 66.6045 83.7362 67.5784 83.3196V84.5693C67.083 84.7833 66.6129 84.9353 66.1682 85.0253C65.7291 85.121 65.1971 85.1689 64.5722 85.1689ZM64.1922 76.7498C63.4491 76.7498 62.8552 76.9919 62.4104 77.476C61.9713 77.9602 61.7123 78.6301 61.6335 79.4858H66.4722C66.4722 78.602 66.2751 77.9264 65.8811 77.4592C65.487 76.9863 64.924 76.7498 64.1922 76.7498ZM74.1016 75.5761C74.5125 75.5761 74.8813 75.6098 75.2078 75.6774L75.0136 76.9778C74.6307 76.8934 74.293 76.8512 74.0002 76.8512C73.2515 76.8512 72.6097 77.1552 72.0749 77.7632C71.5457 78.3712 71.2811 79.1283 71.2811 80.0347V85H69.8794V75.7449H71.0362L71.1967 77.4592H71.2642C71.6076 76.8568 72.0214 76.3923 72.5056 76.0658C72.9897 75.7393 73.5217 75.5761 74.1016 75.5761ZM90.5088 78.7089C90.5088 80.7468 89.9543 82.3062 88.8452 83.3871C87.7418 84.4624 86.1515 85 84.0741 85H80.6542V72.6543H84.4373C86.3569 72.6543 87.8488 73.1863 88.9128 74.2503C89.9768 75.3143 90.5088 76.8005 90.5088 78.7089ZM88.9888 78.7596C88.9888 77.1495 88.5835 75.9364 87.7728 75.1201C86.9678 74.3038 85.7687 73.8956 84.1755 73.8956H82.0897V83.7587H83.8377C85.5491 83.7587 86.8355 83.3393 87.6968 82.5005C88.5581 81.656 88.9888 80.4091 88.9888 78.7596ZM96.4746 85.1689C95.1066 85.1689 94.0257 84.7523 93.232 83.9191C92.4438 83.0859 92.0498 81.9291 92.0498 80.4485C92.0498 78.9566 92.4157 77.7716 93.1475 76.8934C93.885 76.0152 94.873 75.5761 96.1115 75.5761C97.2712 75.5761 98.1888 75.9589 98.8644 76.7245C99.5399 77.4845 99.8777 78.4894 99.8777 79.7391V80.6258H93.5022C93.5303 81.7123 93.8034 82.5371 94.3213 83.1C94.8449 83.663 95.5795 83.9445 96.5253 83.9445C97.5217 83.9445 98.5069 83.7362 99.4808 83.3196V84.5693C98.9854 84.7833 98.5153 84.9353 98.0706 85.0253C97.6315 85.121 97.0995 85.1689 96.4746 85.1689ZM96.0946 76.7498C95.3515 76.7498 94.7576 76.9919 94.3129 77.476C93.8737 77.9602 93.6148 78.6301 93.536 79.4858H98.3746C98.3746 78.602 98.1776 77.9264 97.7835 77.4592C97.3894 76.9863 96.8265 76.7498 96.0946 76.7498ZM103.808 85L100.296 75.7449H101.799L103.792 81.2338C104.242 82.5173 104.507 83.3505 104.585 83.7333H104.653C104.715 83.435 104.909 82.8185 105.236 81.884C105.568 80.9439 106.308 78.8975 107.456 75.7449H108.96L105.447 85H103.808ZM113.861 85.1689C112.493 85.1689 111.413 84.7523 110.619 83.9191C109.831 83.0859 109.437 81.9291 109.437 80.4485C109.437 78.9566 109.802 77.7716 110.534 76.8934C111.272 76.0152 112.26 75.5761 113.498 75.5761C114.658 75.5761 115.576 75.9589 116.251 76.7245C116.927 77.4845 117.264 78.4894 117.264 79.7391V80.6258H110.889C110.917 81.7123 111.19 82.5371 111.708 83.1C112.232 83.663 112.966 83.9445 113.912 83.9445C114.908 83.9445 115.894 83.7362 116.868 83.3196V84.5693C116.372 84.7833 115.902 84.9353 115.457 85.0253C115.018 85.121 114.486 85.1689 113.861 85.1689ZM113.481 76.7498C112.738 76.7498 112.144 76.9919 111.7 77.476C111.261 77.9602 111.002 78.6301 110.923 79.4858H115.761C115.761 78.602 115.564 77.9264 115.17 77.4592C114.776 76.9863 114.213 76.7498 113.481 76.7498ZM120.57 85H119.169V71.8605H120.57V85ZM131.037 80.364C131.037 81.8728 130.657 83.0522 129.897 83.9022C129.137 84.7467 128.087 85.1689 126.747 85.1689C125.92 85.1689 125.185 84.9747 124.543 84.5862C123.902 84.1978 123.406 83.6405 123.057 82.9142C122.708 82.188 122.534 81.3379 122.534 80.364C122.534 78.8553 122.911 77.6815 123.665 76.8427C124.419 75.9983 125.467 75.5761 126.806 75.5761C128.101 75.5761 129.129 76.0067 129.889 76.868C130.654 77.7294 131.037 78.8947 131.037 80.364ZM123.986 80.364C123.986 81.5462 124.222 82.447 124.695 83.0662C125.168 83.6855 125.863 83.9951 126.781 83.9951C127.699 83.9951 128.394 83.6883 128.867 83.0747C129.345 82.4554 129.585 81.5519 129.585 80.364C129.585 79.1874 129.345 78.2952 128.867 77.6872C128.394 77.0735 127.693 76.7667 126.764 76.7667C125.847 76.7667 125.154 77.0679 124.687 77.6703C124.22 78.2726 123.986 79.1706 123.986 80.364ZM137.315 85.1689C136.713 85.1689 136.161 85.0591 135.66 84.8396C135.165 84.6144 134.748 84.271 134.41 83.8093H134.309C134.377 84.3498 134.41 84.8621 134.41 85.3462V89.1546H133.009V75.7449H134.149L134.343 77.0116H134.41C134.771 76.5049 135.19 76.139 135.669 75.9138C136.147 75.6886 136.696 75.5761 137.315 75.5761C138.543 75.5761 139.488 75.9955 140.153 76.8343C140.823 77.6731 141.158 78.8497 141.158 80.364C141.158 81.884 140.817 83.0662 140.136 83.9107C139.46 84.7495 138.52 85.1689 137.315 85.1689ZM137.113 76.7667C136.167 76.7667 135.483 77.0285 135.061 77.552C134.638 78.0756 134.422 78.9088 134.41 80.0516V80.364C134.41 81.6645 134.627 82.5962 135.061 83.1591C135.494 83.7165 136.189 83.9951 137.146 83.9951C137.946 83.9951 138.571 83.6714 139.021 83.024C139.477 82.3766 139.705 81.4843 139.705 80.3471C139.705 79.1931 139.477 78.3092 139.021 77.6956C138.571 77.0763 137.935 76.7667 137.113 76.7667ZM147.03 85.1689C145.662 85.1689 144.582 84.7523 143.788 83.9191C143 83.0859 142.606 81.9291 142.606 80.4485C142.606 78.9566 142.972 77.7716 143.703 76.8934C144.441 76.0152 145.429 75.5761 146.667 75.5761C147.827 75.5761 148.745 75.9589 149.42 76.7245C150.096 77.4845 150.434 78.4894 150.434 79.7391V80.6258H144.058C144.086 81.7123 144.359 82.5371 144.877 83.1C145.401 83.663 146.135 83.9445 147.081 83.9445C148.078 83.9445 149.063 83.7362 150.037 83.3196V84.5693C149.541 84.7833 149.071 84.9353 148.626 85.0253C148.187 85.121 147.655 85.1689 147.03 85.1689ZM146.65 76.7498C145.907 76.7498 145.313 76.9919 144.869 77.476C144.43 77.9602 144.171 78.6301 144.092 79.4858H148.93C148.93 78.602 148.733 77.9264 148.339 77.4592C147.945 76.9863 147.382 76.7498 146.65 76.7498ZM156.56 75.5761C156.971 75.5761 157.34 75.6098 157.666 75.6774L157.472 76.9778C157.089 76.8934 156.751 76.8512 156.459 76.8512C155.71 76.8512 155.068 77.1552 154.533 77.7632C154.004 78.3712 153.739 79.1283 153.739 80.0347V85H152.338V75.7449H153.495L153.655 77.4592H153.723C154.066 76.8568 154.48 76.3923 154.964 76.0658C155.448 75.7393 155.98 75.5761 156.56 75.5761Z" fill="white"/>
<g opacity="0.8" clip-path="url(#clip0_13_354)">
<g style="mix-blend-mode:multiply" filter="url(#filter0_f_13_354)">
<path d="M263.037 49.2161V105.446C263.045 110.369 262.022 115.239 260.033 119.743C258.107 124.115 255.337 128.064 251.88 131.363C248.405 134.704 244.321 137.349 239.851 139.155C230.434 142.96 219.906 142.96 210.489 139.155C206.019 137.349 201.936 134.704 198.46 131.363C195.004 128.064 192.234 124.116 190.307 119.746C188.319 115.242 187.296 110.372 187.303 105.449V50.0924C187.303 42.4166 193.719 36.1761 201.607 36.1761C209.494 36.1761 215.91 42.4166 215.91 50.0924V57.2737C216.375 57.2308 216.847 57.205 217.319 57.205C220.105 57.2059 222.832 58.0036 225.178 59.5039C227.519 58.0058 230.24 57.2081 233.021 57.205C233.493 57.205 233.965 57.2308 234.429 57.2737V49.2161C234.429 41.5402 240.846 35.2982 248.733 35.2982C256.62 35.2982 263.037 41.5402 263.037 49.2161Z" fill="#C1D2E0"/>
</g>
<path d="M259.737 45.9164V102.148C259.744 107.071 258.721 111.941 256.733 116.445C254.807 120.816 252.036 124.765 248.58 128.065C245.105 131.406 241.021 134.051 236.551 135.857C227.133 139.659 216.607 139.659 207.189 135.857C202.719 134.051 198.635 131.406 195.16 128.065C191.704 124.766 188.934 120.818 187.007 116.448C185.019 111.944 183.996 107.074 184.003 102.151V46.7942C184.003 39.1183 190.418 32.8778 198.307 32.8778C206.195 32.8778 212.61 39.1183 212.61 46.7942V53.9754C213.075 53.9325 213.547 53.9054 214.019 53.9054C216.805 53.9072 219.532 54.7054 221.878 56.2057C224.222 54.7049 226.947 53.9067 229.731 53.9054C230.203 53.9054 230.675 53.9325 231.14 53.9754V45.9164C231.14 38.2405 237.555 32 245.443 32C253.332 32 259.737 38.2405 259.737 45.9164Z" fill="white"/>
<path d="M245.436 36.6178C240.098 36.6178 235.755 40.7896 235.755 45.9107V60.5576C233.667 58.9654 231.033 58.265 228.429 58.6099C225.826 58.9547 223.465 60.3167 221.864 62.3976C220.263 60.3213 217.905 58.9625 215.306 58.6177C212.706 58.273 210.076 58.9704 207.989 60.5576V46.7942C207.989 41.6674 203.646 37.5014 198.308 37.5014C192.97 37.5014 188.629 41.6731 188.629 46.7942V102.148C188.622 106.431 189.512 110.668 191.242 114.586C192.927 118.405 195.348 121.854 198.367 124.737C201.42 127.671 205.007 129.994 208.933 131.581C217.238 134.929 226.518 134.929 234.823 131.581C238.749 129.993 242.335 127.67 245.389 124.737C248.408 121.854 250.829 118.405 252.514 114.586C254.244 110.668 255.134 106.431 255.127 102.148V45.9164C255.116 40.7896 250.773 36.6178 245.436 36.6178ZM224.098 67.8246C224.098 64.8409 226.617 62.4205 229.725 62.4205C232.833 62.4205 235.351 64.8409 235.351 67.8246V87.1108C235.351 90.096 232.83 92.5149 229.725 92.5149C228.987 92.5163 228.255 92.377 227.569 92.1046C227.688 91.5188 227.748 90.9225 227.748 90.3247C227.748 87.3853 226.318 84.7604 224.098 83.0563V67.8246ZM214.012 62.4205C217.119 62.4205 219.638 64.8409 219.638 67.8246V81.1405C219.117 81.0592 218.591 81.0186 218.064 81.019H208.384V67.8246C208.387 64.8409 210.905 62.4205 214.012 62.4205ZM192.675 46.7942C192.675 43.8105 195.194 41.3915 198.301 41.3915C201.408 41.3915 203.927 43.8105 203.927 46.7942V81.0204H198.301C196.293 81.0152 194.331 81.62 192.675 82.7546V46.7942ZM251.062 95.9662V103.266C251.062 103.355 251.062 103.443 251.055 103.531C251.044 103.733 251.022 103.934 250.988 104.134C249.926 118.694 237.295 130.188 221.868 130.188C215.479 130.21 209.251 128.18 204.103 124.399C203.092 123.652 202.131 122.84 201.226 121.969C198.86 119.704 196.909 117.043 195.46 114.106C193.625 110.384 192.672 106.29 192.675 102.141V90.4634C192.675 90.4391 192.675 90.4148 192.675 90.3905C192.675 90.3662 192.675 90.3419 192.675 90.3175C192.675 87.3324 195.194 84.9134 198.301 84.9134H218.067C218.599 84.9123 219.129 84.9845 219.641 85.1279C219.784 85.1665 219.914 85.2094 220.047 85.2565C220.139 85.2894 220.229 85.3266 220.317 85.3638L220.38 85.3895C220.468 85.4281 220.555 85.4681 220.639 85.5096L220.669 85.5239C220.746 85.5639 220.822 85.6039 220.898 85.6468L220.955 85.6783C221.037 85.7255 221.117 85.7726 221.196 85.8212L221.236 85.8484C221.306 85.8942 221.379 85.9399 221.44 85.9914L221.487 86.0257C221.563 86.08 221.63 86.1372 221.708 86.1958L221.752 86.233C221.816 86.2859 221.878 86.3402 221.938 86.3945L221.974 86.4274C222.042 86.4903 222.108 86.5547 222.173 86.6204L222.217 86.6662C222.276 86.7291 222.333 86.792 222.39 86.8563L222.409 86.8778C222.47 86.9478 222.527 87.0207 222.584 87.0937C222.599 87.1108 222.612 87.128 222.625 87.1465C222.682 87.2209 222.736 87.2895 222.789 87.3739C222.841 87.4496 222.889 87.5283 222.932 87.6069C222.944 87.6255 222.956 87.6455 222.966 87.6641C223.014 87.7441 223.059 87.8242 223.101 87.9071C223.107 87.9173 223.112 87.9278 223.117 87.9386C223.155 88.0129 223.191 88.0815 223.225 88.1645C223.235 88.1845 223.244 88.2045 223.252 88.2259C223.29 88.3089 223.324 88.3932 223.357 88.479C223.357 88.4962 223.368 88.5147 223.375 88.5319C223.403 88.6062 223.427 88.6749 223.451 88.7578C223.451 88.7807 223.467 88.805 223.474 88.8307C223.481 88.8564 223.487 88.875 223.493 88.8979L223.527 89.0223L223.544 89.0952C223.554 89.1366 223.564 89.1767 223.573 89.2181C223.581 89.2596 223.583 89.2682 223.589 89.2939C223.594 89.3196 223.604 89.3754 223.612 89.4154L223.624 89.4941L223.642 89.6184C223.642 89.6442 223.642 89.6699 223.652 89.6971C223.662 89.7242 223.662 89.7814 223.666 89.8243C223.67 89.8672 223.666 89.8744 223.666 89.9001L223.674 90.0431C223.674 90.0645 223.674 90.0874 223.674 90.1088C223.674 90.1774 223.674 90.2518 223.674 90.3161C223.675 91.4441 223.31 92.5419 222.635 93.4457C222.101 94.1568 221.409 94.733 220.612 95.128C219.816 95.523 218.938 95.7259 218.049 95.7203H206.692C205.29 95.7203 204.27 96.9998 204.638 98.2937C204.769 98.7342 205.041 99.1199 205.412 99.3923C205.782 99.6647 206.232 99.809 206.692 99.8034H215.141C218.803 99.8034 221.771 102.654 221.771 106.171V108.762C221.79 109.286 222.012 109.782 222.39 110.146C222.768 110.51 223.273 110.713 223.797 110.713C224.322 110.713 224.827 110.51 225.204 110.146C225.582 109.782 225.805 109.286 225.824 108.762V106.178C225.819 104.75 225.509 103.338 224.916 102.038C224.323 100.739 223.459 99.58 222.383 98.6396C223.805 97.96 225.038 96.9424 225.976 95.6759C227.169 96.1583 228.444 96.4054 229.731 96.4036C235.067 96.4036 239.41 92.2333 239.41 87.1108V85.7483L239.816 53.2263V45.9164C239.816 42.9327 242.334 40.5137 245.442 40.5137C248.55 40.5137 251.068 42.9327 251.068 45.9164V95.9647L251.062 95.9662Z" fill="#5378FC"/>
</g>
<defs>
<filter id="filter0_f_13_354" x="179.155" y="27.1501" width="92.0307" height="123.007" filterUnits="userSpaceOnUse" color-interpolation-filters="sRGB">
<feFlood flood-opacity="0" result="BackgroundImageFix"/>
<feBlend mode="normal" in="SourceGraphic" in2="BackgroundImageFix" result="shape"/>
<feGaussianBlur stdDeviation="4.07407" result="effect1_foregroundBlur_13_354"/>
</filter>
<linearGradient id="paint0_linear_13_354" x1="143" y1="35" x2="-40.5" y2="235" gradientUnits="userSpaceOnUse">
<stop stop-color="#5478F6"/>
<stop offset="1" stop-color="#3C5199"/>
</linearGradient>
<clipPath id="clip0_13_354">
<rect width="79.037" height="110" fill="white" transform="translate(184 32)"/>
</clipPath>
</defs>
</svg>
