<svg width="85" height="35" viewBox="0 0 85 35" fill="none" xmlns="http://www.w3.org/2000/svg">
<path fill-rule="evenodd" clip-rule="evenodd" d="M29.1692 28.2353V14.5516C29.0661 12.1167 27.4107 10.3087 25.064 9.83302C23.9798 9.61424 22.8544 9.5491 21.7447 9.51591C20.0287 9.46552 18.3114 9.50239 16.5056 9.50239V3.53015H12.4805V28.2254H16.5541V12.7645C18.5382 12.7645 20.4531 12.7055 22.362 12.7866C23.5432 12.8382 24.4492 13.5265 24.7936 14.6929C25.0458 15.5496 25.1877 16.4714 25.2011 17.3662C25.2471 20.7106 25.2193 27.9317 25.2193 28.2353H29.1692ZM35.4476 28.2441C35.4476 27.0568 35.4319 21.3783 35.4476 18.0585C35.4501 17.3984 35.5192 16.7322 35.6089 16.0771C35.8939 13.979 36.9648 12.9417 39.0422 12.7487C39.8766 12.6713 40.7183 12.6614 41.5745 12.6209V9.50631C39.5783 9.54318 37.6124 9.33178 35.689 9.87381C33.4903 10.4908 32.058 11.8797 31.6372 14.199C31.4904 14.9918 31.4116 15.8055 31.4067 16.6118V28.2441H35.4476Z" fill="black"/>
<mask id="mask0_2_1081" style="mask-type:alpha" maskUnits="userSpaceOnUse" x="0" y="3" width="11" height="26">
<path fill-rule="evenodd" clip-rule="evenodd" d="M0 3.6123H10.1833V28.2654H0V3.6123Z" fill="white"/>
</mask>
<g mask="url(#mask0_2_1081)">
<path fill-rule="evenodd" clip-rule="evenodd" d="M7.64982 25.0123C5.57358 24.8181 4.50272 23.782 4.21651 21.6839C4.12676 21.0288 4.05885 20.3626 4.05521 19.7013C4.05036 18.3936 4.05157 15.6342 4.05521 12.7655H10.0802V9.58578H4.05885C4.06249 6.3692 4.06612 3.67253 4.05521 3.6123H0.0143076C0.00096729 3.83109 -0.00994751 17.4877 0.0143076 21.1492C0.0215841 21.9555 0.0992005 22.7704 0.243518 23.5632C0.665557 25.8825 2.09903 27.2702 4.29776 27.8872C6.22119 28.4305 8.18464 28.2166 10.1833 28.2547V25.1389C9.32585 25.0996 8.48541 25.0885 7.64982 25.0123" fill="black"/>
</g>
<mask id="mask1_2_1081" style="mask-type:alpha" maskUnits="userSpaceOnUse" x="64" y="9" width="21" height="20">
<path fill-rule="evenodd" clip-rule="evenodd" d="M64.3794 9.49805H84.1168V28.4701H64.3794V9.49805Z" fill="white"/>
</mask>
<g mask="url(#mask1_2_1081)">
<path fill-rule="evenodd" clip-rule="evenodd" d="M64.3794 9.51771H68.2008C68.4118 9.51771 68.7065 9.84097 68.7963 10.072C70.4129 14.3321 74.0511 24.0347 74.233 24.4735C74.6902 23.5468 78.092 14.5448 79.7208 10.1065C79.8966 9.63448 80.1149 9.49805 80.6097 9.49805H84.117C84.0479 9.73895 79.4103 21.1979 77.1606 26.7584C76.7022 27.8929 75.9539 28.5062 74.7266 28.4669C74.4586 28.4571 74.1906 28.4546 73.925 28.4669C72.637 28.521 71.8548 27.8806 71.377 26.6945C69.61 22.3091 64.9615 10.9533 64.3794 9.51771" fill="black"/>
</g>
<mask id="mask2_2_1081" style="mask-type:alpha" maskUnits="userSpaceOnUse" x="42" y="9" width="22" height="26">
<path fill-rule="evenodd" clip-rule="evenodd" d="M42.689 9.55176H63.2076V34.3758H42.689V9.55176Z" fill="white"/>
</mask>
<g mask="url(#mask2_2_1081)">
<path fill-rule="evenodd" clip-rule="evenodd" d="M48.064 34.3642C49.2998 34.3642 50.4325 34.3396 51.5676 34.3752C52.0418 34.39 52.2759 34.2523 52.482 33.7852C55.9311 25.9841 59.4081 18.1928 62.8778 10.3965C62.9906 10.1458 63.0815 9.88521 63.2076 9.56196C61.9342 9.56196 60.7712 9.58162 59.6082 9.55212C59.2055 9.54352 59.0151 9.6861 58.8563 10.0573C57.9467 12.1947 57.0129 14.3186 56.0839 16.4499C55.0082 18.9142 53.9313 21.3749 52.8095 23.9388C52.516 23.2346 52.2565 22.6335 52.0091 22.0276C50.3755 18.0699 48.7504 14.1121 47.1083 10.163C47.0113 9.93192 46.7736 9.5976 46.5905 9.59145C45.3122 9.54229 44.034 9.56319 42.689 9.56319C42.763 9.77213 42.7982 9.90979 42.854 10.0389C45.328 15.6534 47.7862 21.2791 50.3015 26.8727C50.7211 27.8118 50.8375 28.5615 50.3197 29.5202C49.4889 31.0591 48.8316 32.6926 48.064 34.3642" fill="black"/>
</g>
<mask id="mask3_2_1081" style="mask-type:alpha" maskUnits="userSpaceOnUse" x="20" y="0" width="65" height="8">
<path fill-rule="evenodd" clip-rule="evenodd" d="M20.8358 0.313477H84.1167V7.47246H20.8358V0.313477Z" fill="white"/>
</mask>
<g mask="url(#mask3_2_1081)">
<path fill-rule="evenodd" clip-rule="evenodd" d="M84.1186 7.47246L75.9531 3.72121L68.6656 0.370662C68.2557 0.181379 67.79 0.484969 67.79 0.943427V3.08208C67.79 3.40779 67.5414 3.68188 67.22 3.70769L46.0489 5.42599L20.8358 7.47246H84.1186Z" fill="#FF5000"/>
</g>
<path fill-rule="evenodd" clip-rule="evenodd" d="M80.2826 27.5832H80.3602C80.4148 27.5832 80.456 27.5697 80.4851 27.5451C80.513 27.5169 80.5276 27.48 80.5276 27.4308C80.5276 27.3755 80.513 27.3399 80.4863 27.3165C80.4597 27.2968 80.416 27.2846 80.3578 27.2846H80.2826V27.5832ZM80.7398 27.4261C80.7398 27.5563 80.6828 27.6424 80.5688 27.6891L80.8332 28.1389H80.5979L80.3833 27.7481H80.2826V28.1389H80.0716V27.1176H80.3639C80.4936 27.1176 80.5882 27.1434 80.6489 27.195C80.7095 27.2466 80.7398 27.3228 80.7398 27.4261V27.4261ZM79.6969 27.6276C79.6969 27.7567 79.7284 27.8747 79.7915 27.9841C79.8533 28.0935 79.9394 28.1807 80.0486 28.2434C80.1565 28.3073 80.2741 28.3393 80.399 28.3393C80.5252 28.3393 80.6428 28.3073 80.752 28.2422C80.8599 28.1783 80.946 28.091 81.0078 27.9816C81.0697 27.8735 81.1012 27.7555 81.1012 27.6276C81.1012 27.5023 81.0697 27.3818 81.0066 27.2712C80.9436 27.1606 80.8575 27.0745 80.7483 27.0106C80.6392 26.9479 80.5227 26.916 80.399 26.916C80.2741 26.916 80.1577 26.9467 80.0498 27.0094C79.943 27.0721 79.8569 27.1581 79.7927 27.2687C79.7284 27.3794 79.6969 27.4998 79.6969 27.6276V27.6276ZM79.5598 27.6276C79.5598 27.4765 79.5962 27.3351 79.6714 27.2036C79.7454 27.0708 79.8472 26.9676 79.9782 26.8926C80.108 26.814 80.2487 26.7783 80.399 26.7783C80.5482 26.7783 80.6877 26.814 80.8174 26.8914C80.9472 26.9651 81.0503 27.0684 81.1255 27.2011C81.2007 27.3326 81.2383 27.4752 81.2383 27.6276C81.2383 27.7764 81.2019 27.9165 81.1303 28.0455C81.0576 28.177 80.9569 28.2815 80.8259 28.359C80.6962 28.4376 80.5543 28.4782 80.399 28.4782C80.245 28.4782 80.1031 28.4376 79.9722 28.3602C79.8424 28.2815 79.7405 28.177 79.6677 28.0468C79.5962 27.9165 79.5598 27.7764 79.5598 27.6276V27.6276Z" fill="white"/>
</svg>
